<?xml version="1.0" encoding="UTF-8"?>
<!DOCTYPE svg PUBLIC "-//W3C//DTD SVG 1.1//EN" "http://www.w3.org/Graphics/SVG/1.1/DTD/svg11.dtd">
<!-- Creator: CorelDRAW 2020 (64 Bit) -->
<svg xmlns="http://www.w3.org/2000/svg" xml:space="preserve" width="297mm" height="210mm" version="1.1" style="shape-rendering:geometricPrecision; text-rendering:geometricPrecision; image-rendering:optimizeQuality; fill-rule:evenodd; clip-rule:evenodd"
viewBox="0 0 29700 21000"
 xmlns:xlink="http://www.w3.org/1999/xlink"
 xmlns:xodm="http://www.corel.com/coreldraw/odm/2003">
 <defs>
  <style type="text/css">
   <![CDATA[
    .str1 {stroke:#FEFEFE;stroke-width:70.56;stroke-miterlimit:22.9256}
    .str0 {stroke:#FEFEFE;stroke-width:176.39;stroke-miterlimit:22.9256}
    .fil0 {fill:#FEFEFE;fill-rule:nonzero}
   ]]>
  </style>
 </defs>
 <g id="Camada_x0020_1">
  <metadata id="CorelCorpID_0Corel-Layer"/>
  <g id="_2876742157360">
   <path class="fil0 str0" d="M1337.34 9050.86l0 -3765.99 2660.7 0 0 441.82 -2137.37 0 0 1172.93 1850.92 0 0 441.82 -1850.92 0 0 1709.42 -523.33 0zm5144.21 -341.89c-179.95,146.4 -353.47,248.96 -519.65,309.45 -166.19,60.49 -344.29,90.29 -535.27,90.29 -313.99,0 -555.46,-72.75 -724.39,-219.16 -168.93,-145.51 -253.4,-332.24 -253.4,-559.28 0,-133.24 32.14,-255.09 95.48,-365.55 64.27,-110.45 147.83,-198.12 250.65,-264.75 103.74,-66.62 219.43,-117.46 348.88,-151.65 95.48,-23.67 239.63,-46.46 431.52,-69.25 391.12,-43.83 680.33,-97.3 864.87,-158.67 1.83,-63.12 2.74,-103.44 2.74,-120.1 0,-187.59 -45.89,-319.97 -137.71,-397.11 -123.94,-104.32 -308.48,-156.04 -552.71,-156.04 -228.6,0 -397.54,38.57 -505.88,114.84 -109.25,76.26 -189.13,211.27 -241.46,405.87l-473.74 -63.11c43.15,-193.74 113.84,-350.65 213,-469.87 99.15,-119.22 242.38,-210.39 429.68,-275.26 186.37,-63.99 403.96,-96.44 650.01,-96.44 244.23,0 443.46,27.19 596.79,82.41 152.4,55.23 265.33,123.6 336.94,206.89 71.61,83.27 122.11,188.47 151.49,315.58 15.61,78.89 23.87,220.91 23.87,425.16l0 613.64c0,428.67 10.1,699.54 30.3,814.39 19.28,114.83 59.67,224.41 118.44,329.61l-506.81 0c-48.65,-97.31 -79.86,-211.27 -93.64,-341.89zm-38.57 -1025.64c-176.27,68.37 -440.69,126.23 -793.25,173.56 -200.14,27.18 -341.53,57.86 -424.16,92.05 -82.63,34.19 -145.98,84.15 -190.97,149.03 -44.98,65.74 -67.94,138.5 -67.94,219.15 0,121.85 48.66,224.42 146.9,305.94 98.24,81.53 241.46,122.73 429.68,122.73 186.37,0 352.56,-38.57 498.53,-116.6 145.06,-77.14 252.48,-183.2 320.42,-317.33 52.33,-104.32 78.05,-257.72 78.05,-460.23l2.74 -168.3zm2287.04 954.63l66.1 408.51c-135.88,27.18 -257.99,41.2 -364.49,41.2 -175.36,0 -311.24,-26.3 -408.56,-79.77 -96.4,-53.47 -164.35,-122.73 -203.82,-209.51 -39.48,-86.79 -58.76,-269.13 -58.76,-547.01l0 -1572.67 -358.07 0 0 -357.67 358.07 0 0 -674.99 484.76 -277.89 0 952.88 484.77 0 0 357.67 -484.77 0 0 1598.96c0,132.37 8.27,217.41 25.71,255.1 16.52,37.69 44.07,67.5 82.63,90.29 38.56,21.92 93.65,33.31 165.26,33.31 53.25,0 123.94,-6.13 211.17,-18.41zm2428.41 -470.74l501.29 63.12c-78.03,277.89 -224.01,494.41 -437.02,647.82 -213,153.41 -484.76,230.55 -816.2,230.55 -416.82,0 -747.35,-122.72 -991.57,-368.18 -244.22,-244.58 -366.33,-589.1 -366.33,-1031.79 0,-457.59 123.03,-813.5 370.01,-1065.97 246.97,-253.34 567.39,-379.59 961.26,-379.59 381.02,0 692.26,123.61 933.73,371.7 241.46,248.08 362.65,596.98 362.65,1046.69 0,27.17 -0.91,68.37 -2.76,122.72l-2129.11 0c18.37,298.94 106.51,528.61 266.26,687.28 158.83,158.67 358.06,238.44 595.86,238.44 177.19,0 328.68,-44.71 453.55,-134.12 125.78,-89.42 224.94,-232.3 298.38,-428.67zm-1586.5 -741.63l1592.01 0c-21.11,-229.68 -82.63,-401.49 -182.7,-516.33 -153.33,-177.96 -353.48,-267.36 -598.61,-267.36 -222.19,0 -408.57,71 -560.06,213.01 -150.57,142.01 -234.11,332.24 -250.64,570.68zm4567.63 625.91l473.75 63.12c-52.34,311.2 -184.54,554.03 -398.46,730.23 -213.93,176.2 -477.43,263.86 -788.66,263.86 -390.21,0 -704.21,-121.85 -941.08,-365.55 -237.79,-243.7 -356.22,-592.6 -356.22,-1046.68 0,-294.56 51.41,-551.41 153.32,-772.32 101.91,-220.03 257.07,-385.71 466.4,-495.29 208.41,-110.45 435.19,-165.69 681.24,-165.69 309.41,0 563.73,74.52 760.2,224.42 197.4,149.91 324.1,362.93 379.19,638.19l-468.25 68.37c-44.98,-183.21 -123.94,-320.84 -238.7,-413.76 -113.85,-92.05 -251.56,-138.5 -413.16,-138.5 -244.21,0 -442.52,83.27 -595.86,249.83 -152.4,167.43 -228.6,430.42 -228.6,791.6 0,366.42 73.44,632.04 220.34,797.72 147.82,165.68 339.7,248.96 575.66,248.96 190.97,0 349.8,-55.22 476.5,-166.56 127.62,-110.46 208.41,-281.4 242.39,-511.95zm3381.41 999.36l0 -3324.17 -1300.05 0 0 -441.82 3123.44 0 0 441.82 -1300.06 0 0 3324.17 -523.33 0zm3558.62 -341.89c-179.95,146.4 -353.47,248.96 -519.65,309.45 -166.19,60.49 -344.3,90.29 -535.27,90.29 -313.99,0 -555.46,-72.75 -724.39,-219.16 -168.93,-145.51 -253.4,-332.24 -253.4,-559.28 0,-133.24 32.13,-255.09 95.48,-365.55 64.27,-110.45 147.82,-198.12 250.64,-264.75 103.75,-66.62 219.44,-117.46 348.89,-151.65 95.48,-23.67 239.63,-46.46 431.52,-69.25 391.12,-43.83 680.32,-97.3 864.86,-158.67 1.84,-63.12 2.75,-103.44 2.75,-120.1 0,-187.59 -45.9,-319.97 -137.71,-397.11 -123.95,-104.32 -308.49,-156.04 -552.71,-156.04 -228.6,0 -397.54,38.57 -505.88,114.84 -109.25,76.26 -189.13,211.27 -241.46,405.87l-473.75 -63.11c43.15,-193.74 113.85,-350.65 213.01,-469.87 99.15,-119.22 242.37,-210.39 429.67,-275.26 186.38,-63.99 403.97,-96.44 650.02,-96.44 244.22,0 443.45,27.19 596.78,82.41 152.41,55.23 265.34,123.6 336.95,206.89 71.61,83.27 122.11,188.47 151.49,315.58 15.61,78.89 23.87,220.91 23.87,425.16l0 613.64c0,428.67 10.1,699.54 30.3,814.39 19.28,114.83 59.67,224.41 118.44,329.61l-506.81 0c-48.66,-97.31 -79.87,-211.27 -93.64,-341.89zm-38.57 -1025.64c-176.27,68.37 -440.69,126.23 -793.25,173.56 -200.14,27.18 -341.54,57.86 -424.16,92.05 -82.64,34.19 -145.98,84.15 -190.97,149.03 -44.99,65.74 -67.94,138.5 -67.94,219.15 0,121.85 48.66,224.42 146.9,305.94 98.24,81.53 241.46,122.73 429.67,122.73 186.38,0 352.56,-38.57 498.54,-116.6 145.06,-77.14 252.48,-183.2 320.42,-317.33 52.33,-104.32 78.04,-257.72 78.04,-460.23l2.75 -168.3zm2287.04 954.63l66.1 408.51c-135.88,27.18 -257.99,41.2 -364.49,41.2 -175.36,0 -311.24,-26.3 -408.57,-79.77 -96.39,-53.47 -164.34,-122.73 -203.82,-209.51 -39.47,-86.79 -58.75,-269.13 -58.75,-547.01l0 -1572.67 -358.07 0 0 -357.67 358.07 0 0 -674.99 484.76 -277.89 0 952.88 484.77 0 0 357.67 -484.77 0 0 1598.96c0,132.37 8.26,217.41 25.71,255.1 16.52,37.69 44.07,67.5 82.63,90.29 38.55,21.92 93.65,33.31 165.26,33.31 53.24,0 123.94,-6.13 211.17,-18.41zm2345.78 412.9l0 -405.88c-222.18,309.45 -523.32,463.73 -904.34,463.73 -168.02,0 -325.02,-30.68 -471,-92.05 -145.98,-62.23 -254.32,-139.38 -325.02,-232.3 -70.69,-93.8 -120.26,-207.76 -148.72,-342.76 -19.28,-91.16 -29.38,-234.93 -29.38,-431.3l0 -1689.26 484.76 0 0 1510.43c0,241.07 10.1,404.12 29.38,487.41 30.3,121.85 94.57,216.52 193.73,285.77 98.23,69.25 219.42,104.32 364.49,104.32 145.06,0 280.93,-35.07 407.64,-106.07 126.7,-71 216.67,-168.31 269.92,-290.16 52.33,-121.85 78.96,-299.8 78.96,-532.11l0 -1459.59 484.77 0 0 2729.82 -435.19 0zm1367.07 0l0 -2729.82 484.77 0 0 2729.82 -484.77 0zm-159.75 -3066.43l352.56 -720.59 639.01 0 -589.43 720.59 -402.14 0z"/>
   <g>
    <path class="fil0 str1" d="M1299.52 10664.71l0 -1020.15 351.79 0c61.82,0 109.1,3.32 141.85,9.74 45.77,8.31 84.16,24.22 115.18,47.49 31.01,23.51 55.95,56.28 74.82,98.31 18.87,42.04 28.2,88.34 28.2,138.92 0,86.43 -25.16,159.81 -75.7,219.66 -50.32,60.07 -141.63,89.99 -273.49,89.99l-239.02 0 0 416.04 -123.63 0zm123.63 -535.72l240.75 0c79.81,0 136.21,-16.14 169.83,-48.68 33.39,-32.53 50.1,-78.13 50.1,-137.26 0,-42.5 -9.76,-79.07 -29.5,-109.46 -19.74,-30.4 -45.77,-50.59 -77.86,-60.33 -20.82,-5.93 -59.22,-9.02 -114.96,-9.02l-238.36 0 0 364.75zm728.75 535.72l0 -739.46 102.81 0 0 113.26c26.24,-52.47 50.54,-87.15 72.88,-103.76 22.33,-16.86 46.84,-25.18 73.53,-25.18 38.6,0 77.85,13.3 117.76,39.66l-40.77 115.65c-27.77,-17.1 -55.53,-25.65 -83.28,-25.65 -24.95,0 -47.29,8.31 -67.03,24.69 -19.73,16.39 -33.83,39.19 -42.29,68.39 -12.8,44.41 -19.09,93.1 -19.09,146.05l0 386.35 -114.52 0zm391.71 -369.74c0,-136.53 34.71,-237.69 104.32,-303.48 57.92,-54.61 128.84,-81.92 212.34,-81.92 92.62,0 168.53,33.24 227.52,99.74 58.77,66.25 88.28,158.15 88.28,275.22 0,94.99 -13.02,169.55 -39.05,223.93 -26.02,54.37 -63.98,96.65 -113.86,126.8 -49.67,30.17 -104.11,45.12 -162.89,45.12 -94.56,0 -170.91,-33 -229.25,-99.26 -58.35,-66.25 -87.41,-161.71 -87.41,-286.15zm117.12 0.25c0,94.51 18.88,165.28 56.61,212.05 37.96,47.01 85.45,70.53 142.93,70.53 56.83,0 104.11,-23.52 142.07,-70.77 37.74,-47.25 56.6,-119.2 56.6,-215.85 0,-91.19 -19.09,-160.29 -57.04,-207.08 -37.95,-47.01 -85.23,-70.52 -141.63,-70.52 -57.48,0 -104.97,23.27 -142.93,70.05 -37.73,46.79 -56.61,117.31 -56.61,211.59zm676.92 369.49l0 -642.58 -101.51 0 0 -96.88 101.51 0 0 -78.37c0,-49.63 3.9,-86.44 11.92,-110.42 11.07,-32.29 30.15,-58.66 57.92,-78.84 27.54,-20.18 66.37,-30.16 116.25,-30.16 32.32,0 67.89,4.28 106.93,12.59l-17.14 109.71c-23.85,-4.51 -46.19,-6.89 -67.45,-6.89 -34.7,0 -59.21,8.08 -73.74,24.22 -14.31,16.15 -21.48,46.3 -21.48,90.47l0 67.69 131.44 0 0 96.88 -130.13 0 0 642.58 -114.52 0zm794.91 -239.36l118.42 17.09c-18.43,75.28 -52.93,133.93 -103.24,175.49 -50.32,41.55 -114.52,62.45 -192.81,62.45 -98.47,0 -176.56,-33.24 -234.25,-99.73 -57.7,-66.26 -86.54,-159.58 -86.54,-279.5 0,-123.95 29.06,-220.37 87.41,-288.76 58.34,-68.62 134.03,-102.82 227.09,-102.82 90,0 163.53,33.48 220.57,100.69 57.04,67.2 85.67,161.71 85.67,283.54 0,7.35 -0.21,18.52 -0.64,33.24l-502.98 0c4.34,80.97 25.16,143.18 62.9,186.17 37.52,42.98 84.58,64.59 140.77,64.59 41.86,0 77.64,-12.12 107.14,-36.34 29.71,-24.22 53.14,-62.92 70.49,-116.11zm-374.79 -200.9l376.09 0c-4.99,-62.22 -19.52,-108.75 -43.16,-139.86 -36.22,-48.21 -83.5,-72.43 -141.42,-72.43 -52.48,0 -96.51,19.23 -132.3,57.7 -35.57,38.47 -55.31,90 -59.21,154.59zm592.33 219.42l113.21 -19.95c6.3,49.63 24.08,87.62 53.14,114.22 29.06,26.37 69.85,39.66 121.9,39.66 52.7,0 91.74,-11.63 117.34,-35.15 25.37,-23.27 38.17,-50.81 38.17,-82.4 0,-28.25 -11.5,-50.58 -34.27,-66.72 -16.06,-11.16 -55.1,-25.17 -117.12,-42.51 -83.73,-23.03 -141.63,-42.98 -174.17,-59.84 -32.31,-17.1 -56.82,-40.38 -73.53,-70.3 -16.69,-29.67 -25.15,-62.69 -25.15,-98.78 0,-33 6.93,-63.4 20.6,-91.42 13.89,-28.02 32.54,-51.29 56.18,-69.81 17.79,-14.25 42.07,-26.37 72.66,-36.34 30.8,-9.98 63.55,-14.96 98.68,-14.96 52.92,0 99.34,8.32 139.25,25.18 40.13,16.61 69.62,39.41 88.71,67.91 18.86,28.73 32.1,66.96 39.25,114.93l-111.91 17.1c-4.99,-38.47 -19.74,-68.63 -44.04,-90.23 -24.28,-21.62 -58.56,-32.3 -103.02,-32.3 -52.27,0 -89.79,9.5 -112.13,28.49 -22.34,19 -33.62,41.32 -33.62,66.73 0,16.15 4.56,30.87 13.89,43.94 9.32,13.29 23.85,24.45 43.8,33.24 11.5,4.74 44.9,15.43 100.86,32.05 80.68,23.51 137.07,42.99 169.18,57.94 32.1,14.97 57.26,37.05 75.47,65.55 18.44,28.73 27.55,64.35 27.55,107.09 0,41.55 -11.06,80.74 -33.41,117.55 -22.33,36.81 -54.43,65.31 -96.3,85.49 -42.07,20.18 -89.56,30.15 -142.49,30.15 -87.62,0 -154.64,-19.94 -200.62,-59.6 -45.99,-39.9 -75.26,-98.78 -88.06,-176.91zm650.67 0l113.22 -19.95c6.29,49.63 24.08,87.62 53.14,114.22 29.06,26.37 69.84,39.66 121.9,39.66 52.69,0 91.74,-11.63 117.33,-35.15 25.37,-23.27 38.17,-50.81 38.17,-82.4 0,-28.25 -11.5,-50.58 -34.26,-66.72 -16.06,-11.16 -55.1,-25.17 -117.13,-42.51 -83.72,-23.03 -141.63,-42.98 -174.16,-59.84 -32.32,-17.1 -56.83,-40.38 -73.53,-70.3 -16.69,-29.67 -25.16,-62.69 -25.16,-98.78 0,-33 6.94,-63.4 20.61,-91.42 13.88,-28.02 32.53,-51.29 56.17,-69.81 17.79,-14.25 42.07,-26.37 72.66,-36.34 30.8,-9.98 63.55,-14.96 98.69,-14.96 52.91,0 99.33,8.32 139.24,25.18 40.13,16.61 69.62,39.41 88.71,67.91 18.86,28.73 32.1,66.96 39.26,114.93l-111.92 17.1c-4.99,-38.47 -19.74,-68.63 -44.03,-90.23 -24.29,-21.62 -58.56,-32.3 -103.02,-32.3 -52.27,0 -89.8,9.5 -112.13,28.49 -22.34,19 -33.62,41.32 -33.62,66.73 0,16.15 4.56,30.87 13.88,43.94 9.33,13.29 23.86,24.45 43.81,33.24 11.49,4.74 44.9,15.43 100.86,32.05 80.68,23.51 137.07,42.99 169.17,57.94 32.1,14.97 57.26,37.05 75.48,65.55 18.43,28.73 27.54,64.35 27.54,107.09 0,41.55 -11.05,80.74 -33.4,117.55 -22.34,36.81 -54.43,65.31 -96.3,85.49 -42.08,20.18 -89.57,30.15 -142.49,30.15 -87.62,0 -154.65,-19.94 -200.63,-59.6 -45.98,-39.9 -75.26,-98.78 -88.06,-176.91zm653.28 -148.9c0,-136.53 34.7,-237.69 104.32,-303.48 57.92,-54.61 128.84,-81.92 212.34,-81.92 92.62,0 168.53,33.24 227.52,99.74 58.77,66.25 88.27,158.15 88.27,275.22 0,94.99 -13.01,169.55 -39.04,223.93 -26.02,54.37 -63.98,96.65 -113.86,126.8 -49.68,30.17 -104.11,45.12 -162.89,45.12 -94.56,0 -170.91,-33 -229.26,-99.26 -58.34,-66.25 -87.4,-161.71 -87.4,-286.15zm117.12 0.25c0,94.51 18.87,165.28 56.61,212.05 37.96,47.01 85.45,70.53 142.93,70.53 56.83,0 104.1,-23.52 142.07,-70.77 37.74,-47.25 56.6,-119.2 56.6,-215.85 0,-91.19 -19.09,-160.29 -57.04,-207.08 -37.96,-47.01 -85.23,-70.52 -141.63,-70.52 -57.48,0 -104.97,23.27 -142.93,70.05 -37.74,46.79 -56.61,117.31 -56.61,211.59zm648.29 369.49l0 -739.46 102.8 0 0 113.26c26.25,-52.47 50.54,-87.15 72.88,-103.76 22.34,-16.86 46.85,-25.18 73.53,-25.18 38.6,0 77.86,13.3 117.77,39.66l-40.77 115.65c-27.77,-17.1 -55.53,-25.65 -83.29,-25.65 -24.94,0 -47.29,8.31 -67.03,24.69 -19.73,16.39 -33.83,39.19 -42.28,68.39 -12.8,44.41 -19.09,93.1 -19.09,146.05l0 386.35 -114.52 0zm971.24 0l-245.31 -1020.15 127.97 0 139.68 668.94c15.18,70.06 28.63,139.62 40.13,208.5 24.5,-108.77 38.81,-171.46 42.94,-188.08l176.12 -689.36 148.56 0 133.61 516.48c32.75,128.23 57.05,248.63 72.66,360.96 12.36,-64.35 28.19,-138.21 47.5,-221.56l145.53 -655.88 123.85 0 -255.07 1020.15 -119.94 0 -195.41 -777.23c-16.49,-65.05 -26.47,-104.95 -30.15,-119.68 -10.64,46.55 -20.18,86.44 -28.42,119.45l-195.41 777.46 -128.84 0zm1053.23 -877.67l0 -142.48 114.51 0 0 142.48 -114.51 0zm0 877.67l0 -739.46 114.51 0 0 739.46 -114.51 0zm286.51 0l0 -1020.15 114.52 0 0 1020.15 -114.52 0zm246.17 -220.84l113.21 -19.95c6.3,49.63 24.09,87.62 53.15,114.22 29.06,26.37 69.84,39.66 121.89,39.66 52.7,0 91.74,-11.63 117.34,-35.15 25.37,-23.27 38.17,-50.81 38.17,-82.4 0,-28.25 -11.5,-50.58 -34.27,-66.72 -16.05,-11.16 -55.1,-25.17 -117.12,-42.51 -83.73,-23.03 -141.63,-42.98 -174.16,-59.84 -32.32,-17.1 -56.83,-40.38 -73.54,-70.3 -16.69,-29.67 -25.15,-62.69 -25.15,-98.78 0,-33 6.93,-63.4 20.6,-91.42 13.89,-28.02 32.54,-51.29 56.18,-69.81 17.79,-14.25 42.07,-26.37 72.66,-36.34 30.8,-9.98 63.55,-14.96 98.69,-14.96 52.91,0 99.33,8.32 139.24,25.18 40.13,16.61 69.62,39.41 88.71,67.91 18.86,28.73 32.1,66.96 39.25,114.93l-111.91 17.1c-4.99,-38.47 -19.74,-68.63 -44.03,-90.23 -24.29,-21.62 -58.57,-32.3 -103.03,-32.3 -52.27,0 -89.79,9.5 -112.13,28.49 -22.34,19 -33.62,41.32 -33.62,66.73 0,16.15 4.56,30.87 13.89,43.94 9.32,13.29 23.85,24.45 43.8,33.24 11.5,4.74 44.9,15.43 100.86,32.05 80.69,23.51 137.07,42.99 169.18,57.94 32.1,14.97 57.26,37.05 75.48,65.55 18.43,28.73 27.54,64.35 27.54,107.09 0,41.55 -11.06,80.74 -33.41,117.55 -22.33,36.81 -54.43,65.31 -96.3,85.49 -42.07,20.18 -89.56,30.15 -142.49,30.15 -87.62,0 -154.64,-19.94 -200.62,-59.6 -45.99,-39.9 -75.26,-98.78 -88.06,-176.91zm653.27 -148.9c0,-136.53 34.71,-237.69 104.33,-303.48 57.91,-54.61 128.83,-81.92 212.33,-81.92 92.62,0 168.53,33.24 227.52,99.74 58.78,66.25 88.28,158.15 88.28,275.22 0,94.99 -13.01,169.55 -39.04,223.93 -26.03,54.37 -63.98,96.65 -113.86,126.8 -49.68,30.17 -104.11,45.12 -162.9,45.12 -94.55,0 -170.9,-33 -229.25,-99.26 -58.35,-66.25 -87.41,-161.71 -87.41,-286.15zm117.13 0.25c0,94.51 18.87,165.28 56.61,212.05 37.95,47.01 85.45,70.53 142.92,70.53 56.83,0 104.11,-23.52 142.08,-70.77 37.73,-47.25 56.6,-119.2 56.6,-215.85 0,-91.19 -19.09,-160.29 -57.05,-207.08 -37.95,-47.01 -85.23,-70.52 -141.63,-70.52 -57.47,0 -104.97,23.27 -142.92,70.05 -37.74,46.79 -56.61,117.31 -56.61,211.59zm649.58 369.49l0 -739.46 102.81 0 0 104.96c49.45,-80.51 121.03,-120.64 214.51,-120.64 40.77,0 78.08,8.08 112.13,23.99 34.05,15.91 59.65,37.04 76.56,62.93 16.92,25.88 28.85,56.75 35.57,92.37 4.12,23.27 6.29,63.88 6.29,121.81l0 454.04 -114.52 0 0 -449.28c0,-51.06 -4.33,-89.29 -13.23,-114.46 -8.89,-25.17 -24.72,-45.36 -47.27,-60.55 -22.57,-14.97 -49.24,-22.56 -79.61,-22.56 -48.58,0 -90.44,16.86 -125.79,50.82 -35.35,33.71 -52.93,98.06 -52.93,192.58l0 403.45 -114.52 0zm1102.25 0l0 -1020.15 412.95 0c83.08,0 146.2,9.26 189.36,27.54 43.16,18.29 77.65,50.59 103.45,96.89 25.81,46.31 38.61,97.6 38.61,153.64 0,72.43 -21.47,133.46 -64.2,183.09 -42.73,49.62 -108.67,80.97 -198.02,94.51 32.75,17.1 57.48,34.2 74.39,50.82 36,36.09 70.06,81.45 101.94,135.83l161.15 277.83 -153.99 0 -123.2 -212.29c-35.79,-61.5 -65.49,-108.29 -88.7,-140.82 -23.43,-32.54 -44.25,-55.1 -62.68,-68.15 -18.22,-12.83 -37.1,-21.85 -56.19,-27.08 -13.87,-3.08 -36.65,-4.74 -68.53,-4.74l-142.71 0 0 453.08 -123.63 0zm123.63 -569.91l264.6 0c56.4,0 100.2,-6.42 131.88,-19.24 31.66,-12.58 55.74,-33.01 72,-61.27 16.49,-28.01 24.73,-58.42 24.73,-91.42 0,-48.21 -15.84,-88.1 -47.72,-119.2 -31.88,-31.11 -82.2,-46.55 -150.96,-46.55l-294.53 0 0 337.68zm756.29 200.17c0,-136.53 34.71,-237.69 104.33,-303.48 57.91,-54.61 128.83,-81.92 212.33,-81.92 92.62,0 168.53,33.24 227.52,99.74 58.78,66.25 88.28,158.15 88.28,275.22 0,94.99 -13.01,169.55 -39.04,223.93 -26.03,54.37 -63.98,96.65 -113.86,126.8 -49.68,30.17 -104.11,45.12 -162.9,45.12 -94.56,0 -170.9,-33 -229.25,-99.26 -58.35,-66.25 -87.41,-161.71 -87.41,-286.15zm117.13 0.25c0,94.51 18.87,165.28 56.61,212.05 37.95,47.01 85.45,70.53 142.92,70.53 56.83,0 104.11,-23.52 142.07,-70.77 37.74,-47.25 56.61,-119.2 56.61,-215.85 0,-91.19 -19.09,-160.29 -57.05,-207.08 -37.95,-47.01 -85.23,-70.52 -141.63,-70.52 -57.47,0 -104.97,23.27 -142.92,70.05 -37.74,46.79 -56.61,117.31 -56.61,211.59zm754.99 369.49l-106.71 0 0 -1020.15 114.52 0 0 364.03c48.37,-66.01 109.97,-99.02 185.01,-99.02 41.43,0 80.9,9.02 117.99,27.31 37.08,18.29 67.46,44.17 91.52,77.17 23.87,33.26 42.73,73.15 56.18,119.92 13.67,46.55 20.39,96.65 20.39,149.85 0,126.33 -28.63,224.16 -85.67,293.03 -57.26,69.1 -125.79,103.53 -205.83,103.53 -79.6,0 -142.07,-36.33 -187.4,-108.75l0 93.08zm-1.3 -375.19c0,88.34 11.07,152.21 32.97,191.63 36,64.35 84.58,96.65 145.97,96.65 50.1,0 93.26,-23.75 129.48,-71.24 36.44,-47.49 54.66,-118.26 54.66,-212.29 0,-96.42 -17.35,-167.42 -52.27,-213.25 -34.92,-45.83 -77.21,-68.86 -126.66,-68.86 -50.11,0 -93.27,23.75 -129.49,71.24 -36.44,47.49 -54.66,116.11 -54.66,206.12zm1080.34 135.83l118.42 17.09c-18.43,75.28 -52.93,133.93 -103.24,175.49 -50.32,41.55 -114.52,62.45 -192.81,62.45 -98.47,0 -176.56,-33.24 -234.25,-99.73 -57.7,-66.26 -86.54,-159.58 -86.54,-279.5 0,-123.95 29.06,-220.37 87.41,-288.76 58.34,-68.62 134.03,-102.82 227.09,-102.82 90,0 163.53,33.48 220.57,100.69 57.04,67.2 85.67,161.71 85.67,283.54 0,7.35 -0.21,18.52 -0.64,33.24l-502.98 0c4.34,80.97 25.16,143.18 62.9,186.17 37.52,42.98 84.58,64.59 140.77,64.59 41.86,0 77.64,-12.12 107.14,-36.34 29.71,-24.22 53.14,-62.92 70.49,-116.11zm-374.79 -200.9l376.09 0c-4.99,-62.22 -19.52,-108.75 -43.16,-139.86 -36.22,-48.21 -83.5,-72.43 -141.42,-72.43 -52.48,0 -96.51,19.23 -132.3,57.7 -35.57,38.47 -55.31,90 -59.21,154.59zm636.57 440.26l0 -739.46 102.81 0 0 113.26c26.24,-52.47 50.54,-87.15 72.87,-103.76 22.34,-16.86 46.85,-25.18 73.54,-25.18 38.6,0 77.85,13.3 117.76,39.66l-40.77 115.65c-27.77,-17.1 -55.53,-25.65 -83.29,-25.65 -24.94,0 -47.28,8.31 -67.02,24.69 -19.74,16.39 -33.84,39.19 -42.29,68.39 -12.8,44.41 -19.09,93.1 -19.09,146.05l0 386.35 -114.52 0zm683.21 -111.85l15.62 110.66c-32.11,7.36 -60.95,11.17 -86.11,11.17 -41.43,0 -73.53,-7.13 -96.51,-21.61 -22.78,-14.49 -38.83,-33.25 -48.15,-56.76 -9.33,-23.51 -13.89,-72.9 -13.89,-148.18l0 -426.01 -84.58 0 0 -96.88 84.58 0 0 -182.85 114.52 -75.28 0 258.13 114.52 0 0 96.88 -114.52 0 0 433.14c0,35.85 1.96,58.89 6.08,69.09 3.9,10.22 10.41,18.29 19.52,24.47 9.11,5.94 22.12,9.02 39.04,9.02 12.57,0 29.27,-1.66 49.88,-4.99zm70.06 -257.89c0,-136.53 34.7,-237.69 104.32,-303.48 57.92,-54.61 128.84,-81.92 212.34,-81.92 92.62,0 168.53,33.24 227.52,99.74 58.77,66.25 88.27,158.15 88.27,275.22 0,94.99 -13.01,169.55 -39.04,223.93 -26.02,54.37 -63.98,96.65 -113.86,126.8 -49.68,30.17 -104.11,45.12 -162.89,45.12 -94.56,0 -170.91,-33 -229.26,-99.26 -58.34,-66.25 -87.4,-161.71 -87.4,-286.15zm117.12 0.25c0,94.51 18.87,165.28 56.61,212.05 37.96,47.01 85.45,70.53 142.93,70.53 56.83,0 104.1,-23.52 142.07,-70.77 37.74,-47.25 56.6,-119.2 56.6,-215.85 0,-91.19 -19.09,-160.29 -57.04,-207.08 -37.96,-47.01 -85.23,-70.52 -141.63,-70.52 -57.48,0 -104.97,23.27 -142.93,70.05 -37.74,46.79 -56.61,117.31 -56.61,211.59zm1028.07 369.49l0 -1020.15 412.95 0c83.07,0 146.2,9.26 189.35,27.54 43.16,18.29 77.66,50.59 103.46,96.89 25.81,46.31 38.61,97.6 38.61,153.64 0,72.43 -21.47,133.46 -64.2,183.09 -42.73,49.62 -108.67,80.97 -198.02,94.51 32.75,17.1 57.47,34.2 74.39,50.82 36,36.09 70.06,81.45 101.94,135.83l161.15 277.83 -153.99 0 -123.2 -212.29c-35.79,-61.5 -65.49,-108.29 -88.7,-140.82 -23.43,-32.54 -44.25,-55.1 -62.68,-68.15 -18.22,-12.83 -37.1,-21.85 -56.19,-27.08 -13.87,-3.08 -36.65,-4.74 -68.53,-4.74l-142.72 0 0 453.08 -123.62 0zm123.62 -569.91l264.61 0c56.4,0 100.2,-6.42 131.87,-19.24 31.67,-12.58 55.75,-33.01 72.01,-61.27 16.49,-28.01 24.72,-58.42 24.72,-91.42 0,-48.21 -15.83,-88.1 -47.71,-119.2 -31.88,-31.11 -82.2,-46.55 -150.96,-46.55l-294.54 0 0 337.68zm799.25 -307.76l0 -142.48 114.52 0 0 142.48 -114.52 0zm0 877.67l0 -739.46 114.52 0 0 739.46 -114.52 0zm394.52 0l-106.71 0 0 -1020.15 114.52 0 0 364.03c48.36,-66.01 109.97,-99.02 185.01,-99.02 41.42,0 80.89,9.02 117.99,27.31 37.08,18.29 67.45,44.17 91.52,77.17 23.87,33.26 42.73,73.15 56.18,119.92 13.67,46.55 20.39,96.65 20.39,149.85 0,126.33 -28.63,224.16 -85.68,293.03 -57.26,69.1 -125.79,103.53 -205.82,103.53 -79.6,0 -142.07,-36.33 -187.4,-108.75l0 93.08zm-1.3 -375.19c0,88.34 11.07,152.21 32.96,191.63 36.01,64.35 84.59,96.65 145.98,96.65 50.1,0 93.26,-23.75 129.48,-71.24 36.44,-47.49 54.66,-118.26 54.66,-212.29 0,-96.42 -17.35,-167.42 -52.27,-213.25 -34.92,-45.83 -77.21,-68.86 -126.66,-68.86 -50.11,0 -93.27,23.75 -129.49,71.24 -36.44,47.49 -54.66,116.11 -54.66,206.12zm1080.33 135.83l118.43 17.09c-18.44,75.28 -52.93,133.93 -103.24,175.49 -50.32,41.55 -114.52,62.45 -192.81,62.45 -98.48,0 -176.56,-33.24 -234.25,-99.73 -57.7,-66.26 -86.54,-159.58 -86.54,-279.5 0,-123.95 29.06,-220.37 87.4,-288.76 58.35,-68.62 134.04,-102.82 227.09,-102.82 90.01,0 163.53,33.48 220.58,100.69 57.04,67.2 85.67,161.71 85.67,283.54 0,7.35 -0.21,18.52 -0.64,33.24l-502.98 0c4.33,80.97 25.16,143.18 62.89,186.17 37.53,42.98 84.59,64.59 140.78,64.59 41.85,0 77.64,-12.12 107.14,-36.34 29.71,-24.22 53.14,-62.92 70.48,-116.11zm-374.78 -200.9l376.09 0c-4.99,-62.22 -19.52,-108.75 -43.16,-139.86 -36.23,-48.21 -83.51,-72.43 -141.42,-72.43 -52.48,0 -96.52,19.23 -132.3,57.7 -35.57,38.47 -55.31,90 -59.21,154.59zm637.87 -437.41l0 -142.48 114.52 0 0 142.48 -114.52 0zm0 877.67l0 -739.46 114.52 0 0 739.46 -114.52 0zm287.82 0l0 -739.46 102.8 0 0 113.26c26.24,-52.47 50.54,-87.15 72.88,-103.76 22.34,-16.86 46.85,-25.18 73.53,-25.18 38.6,0 77.85,13.3 117.77,39.66l-40.78 115.65c-27.77,-17.1 -55.52,-25.65 -83.28,-25.65 -24.94,0 -47.29,8.31 -67.03,24.69 -19.73,16.39 -33.83,39.19 -42.29,68.39 -12.79,44.41 -19.09,93.1 -19.09,146.05l0 386.35 -114.51 0zm391.7 -369.74c0,-136.53 34.71,-237.69 104.32,-303.48 57.92,-54.61 128.84,-81.92 212.34,-81.92 92.62,0 168.53,33.24 227.52,99.74 58.78,66.25 88.28,158.15 88.28,275.22 0,94.99 -13.02,169.55 -39.04,223.93 -26.03,54.37 -63.98,96.65 -113.87,126.8 -49.67,30.17 -104.1,45.12 -162.89,45.12 -94.56,0 -170.91,-33 -229.25,-99.26 -58.35,-66.25 -87.41,-161.71 -87.41,-286.15zm117.12 0.25c0,94.51 18.88,165.28 56.62,212.05 37.95,47.01 85.45,70.53 142.92,70.53 56.83,0 104.11,-23.52 142.07,-70.77 37.74,-47.25 56.61,-119.2 56.61,-215.85 0,-91.19 -19.09,-160.29 -57.05,-207.08 -37.95,-47.01 -85.23,-70.52 -141.63,-70.52 -57.47,0 -104.97,23.27 -142.92,70.05 -37.74,46.79 -56.62,117.31 -56.62,211.59zm1447.1 369.49l0 -93.8c-42.73,72.9 -105.62,109.47 -188.69,109.47 -53.79,0 -103.24,-16.14 -148.14,-48.67 -45.11,-32.3 -80.03,-77.66 -104.97,-135.59 -24.73,-58.19 -37.09,-124.92 -37.09,-200.43 0,-73.62 11.28,-140.35 33.62,-200.42 22.55,-59.84 56.17,-105.91 101.07,-137.73 44.68,-32.06 95,-47.97 150.3,-47.97 40.77,0 77,9.51 108.67,28.26 31.66,18.76 57.47,43.45 77.42,73.61l0 -366.88 114.52 0 0 1020.15 -106.71 0zm-361.77 -368.78c0,94.5 18.22,165.04 54.87,211.82 36.44,46.78 79.6,70.05 129.27,70.05 50.1,0 92.61,-22.33 127.75,-66.97 34.92,-44.64 52.49,-112.79 52.49,-204.46 0,-100.68 -17.79,-174.77 -53.57,-222.02 -35.57,-47.26 -79.6,-70.77 -131.87,-70.77 -50.98,0 -93.48,22.56 -127.76,67.92 -34.05,45.35 -51.18,116.83 -51.18,214.43zm1110.26 129.42l118.43 17.09c-18.44,75.28 -52.93,133.93 -103.24,175.49 -50.32,41.55 -114.52,62.45 -192.82,62.45 -98.47,0 -176.55,-33.24 -234.24,-99.73 -57.7,-66.26 -86.54,-159.58 -86.54,-279.5 0,-123.95 29.06,-220.37 87.4,-288.76 58.35,-68.62 134.04,-102.82 227.09,-102.82 90.01,0 163.53,33.48 220.58,100.69 57.04,67.2 85.67,161.71 85.67,283.54 0,7.35 -0.21,18.52 -0.65,33.24l-502.97 0c4.33,80.97 25.15,143.18 62.89,186.17 37.53,42.98 84.59,64.59 140.77,64.59 41.86,0 77.64,-12.12 107.15,-36.34 29.71,-24.22 53.14,-62.92 70.48,-116.11zm-374.78 -200.9l376.08 0c-4.99,-62.22 -19.52,-108.75 -43.15,-139.86 -36.23,-48.21 -83.51,-72.43 -141.42,-72.43 -52.49,0 -96.52,19.23 -132.3,57.7 -35.58,38.47 -55.31,90 -59.21,154.59zm1677.43 82.4l123.63 34.2c-25.81,110.9 -72.22,195.19 -139.24,253.38 -67.02,58.17 -149,87.38 -245.96,87.38 -100.2,0 -181.76,-22.33 -244.65,-67.2 -62.9,-44.65 -110.62,-109.47 -143.36,-194.26 -32.75,-85 -49.24,-175.95 -49.24,-273.31 0,-106.15 18.43,-198.76 55.53,-277.83 37.08,-79.08 89.79,-139.16 158.11,-180.24 68.32,-41.09 143.58,-61.51 225.57,-61.51 93.26,0 171.55,25.89 234.89,77.9 63.55,52 107.8,124.9 132.74,218.93l-121.03 31.35c-21.47,-74.09 -52.92,-128.23 -93.91,-161.95 -41,-33.96 -92.61,-50.82 -154.86,-50.82 -71.36,0 -131.22,18.76 -179.16,56.28 -47.93,37.52 -81.77,88.1 -101.06,151.27 -19.52,63.4 -29.29,128.7 -29.29,195.9 0,86.68 11.5,162.43 34.49,227.02 22.99,64.83 58.78,113.04 107.36,145.09 48.58,32.06 101.07,47.97 157.68,47.97 68.97,0 127.1,-21.84 174.82,-65.3 47.71,-43.7 80.03,-108.29 96.94,-194.25zm702.95 265.25c-42.52,39.66 -83.5,67.44 -122.76,83.83 -39.26,16.38 -81.34,24.45 -126.45,24.45 -74.17,0 -131.22,-19.71 -171.13,-59.37 -39.91,-39.41 -59.86,-89.99 -59.86,-151.49 0,-36.1 7.59,-69.11 22.55,-99.03 15.19,-29.92 34.92,-53.66 59.22,-71.71 24.51,-18.05 51.84,-31.82 82.41,-41.09 22.57,-6.4 56.62,-12.58 101.95,-18.75 92.4,-11.87 160.71,-26.36 204.31,-42.98 0.43,-17.1 0.65,-28.03 0.65,-32.54 0,-50.82 -10.84,-86.68 -32.54,-107.56 -29.27,-28.26 -72.87,-42.28 -130.56,-42.28 -54.01,0 -93.91,10.45 -119.51,31.11 -25.81,20.66 -44.68,57.23 -57.04,109.95l-111.92 -17.1c10.2,-52.48 26.9,-94.99 50.32,-127.28 23.43,-32.3 57.26,-56.99 101.51,-74.57 44.03,-17.33 95.43,-26.12 153.56,-26.12 57.69,0 104.75,7.36 140.97,22.33 36.01,14.95 62.68,33.48 79.6,56.04 16.92,22.56 28.84,51.05 35.79,85.48 3.69,21.38 5.64,59.85 5.64,115.18l0 166.21c0,116.13 2.39,189.5 7.16,220.61 4.55,31.11 14.09,60.8 27.97,89.29l-119.72 0c-11.5,-26.36 -18.86,-57.23 -22.12,-92.61zm-9.11 -277.83c-41.65,18.52 -104.11,34.19 -187.4,47.01 -47.28,7.36 -80.68,15.68 -100.2,24.93 -19.52,9.27 -34.48,22.8 -45.12,40.38 -10.62,17.8 -16.04,37.51 -16.04,59.36 0,33.01 11.49,60.79 34.7,82.88 23.21,22.08 57.05,33.24 101.51,33.24 44.03,0 83.28,-10.44 117.76,-31.58 34.28,-20.9 59.65,-49.63 75.7,-85.97 12.37,-28.25 18.44,-69.81 18.44,-124.66l0.65 -45.59zm291.72 370.44l0 -739.46 102.8 0 0 104.48c21.04,-36.09 49.24,-65.31 84.37,-87.15 35.14,-22.08 75.05,-33.01 119.94,-33.01 49.89,0 90.88,11.4 122.76,33.96 31.89,22.8 54.44,54.38 67.46,95.23 53.79,-86.21 123.41,-129.19 209.3,-129.19 67.24,0 119.08,20.19 155.07,60.8 36.23,40.6 54.44,103.05 54.44,187.35l0 506.99 -114.51 0 0 -465.43c0,-49.87 -3.91,-85.96 -11.29,-108.05 -7.36,-22.08 -20.82,-39.65 -40.55,-53.19 -19.52,-13.53 -42.51,-20.18 -68.76,-20.18 -47.71,0 -87.19,17.33 -118.64,51.76 -31.44,34.68 -47.06,90 -47.06,165.99l0 429.1 -114.52 0 0 -479.92c0,-55.56 -9.32,-97.35 -27.97,-125.14 -18.66,-27.78 -49.24,-41.79 -91.54,-41.79 -32.09,0 -61.81,9.25 -89.14,27.77 -27.32,18.53 -47.06,45.6 -59.43,81.46 -12.14,35.62 -18.22,87.15 -18.22,154.35l0 383.27 -114.51 0z"/>
    <path class="fil0 str1" d="M25955.29 10572.1c-42.52,39.66 -83.51,67.44 -122.76,83.83 -39.26,16.38 -81.34,24.45 -126.45,24.45 -74.17,0 -131.22,-19.71 -171.13,-59.37 -39.91,-39.41 -59.86,-89.99 -59.86,-151.49 0,-36.1 7.59,-69.11 22.55,-99.03 15.19,-29.92 34.92,-53.66 59.22,-71.71 24.51,-18.05 51.84,-31.82 82.41,-41.09 22.57,-6.4 56.62,-12.58 101.95,-18.75 92.4,-11.87 160.71,-26.36 204.31,-42.98 0.43,-17.1 0.65,-28.03 0.65,-32.54 0,-50.82 -10.84,-86.68 -32.54,-107.56 -29.27,-28.26 -72.87,-42.28 -130.56,-42.28 -54.01,0 -93.91,10.45 -119.51,31.11 -25.81,20.66 -44.68,57.23 -57.05,109.95l-111.91 -17.1c10.19,-52.48 26.9,-94.99 50.32,-127.28 23.43,-32.3 57.26,-56.99 101.51,-74.57 44.03,-17.33 95.43,-26.12 153.56,-26.12 57.69,0 104.75,7.36 140.97,22.33 36.01,14.95 62.68,33.48 79.6,56.04 16.92,22.56 28.84,51.05 35.79,85.48 3.69,21.38 5.64,59.85 5.64,115.18l0 166.21c0,116.13 2.38,189.5 7.16,220.61 4.55,31.11 14.09,60.8 27.97,89.29l-119.72 0c-11.5,-26.36 -18.87,-57.23 -22.12,-92.61zm-9.11 -277.83c-41.65,18.52 -104.11,34.19 -187.4,47.01 -47.28,7.36 -80.68,15.68 -100.2,24.93 -19.52,9.27 -34.48,22.8 -45.12,40.38 -10.62,17.8 -16.04,37.51 -16.04,59.36 0,33.01 11.49,60.79 34.7,82.88 23.21,22.08 57.05,33.24 101.51,33.24 44.03,0 83.28,-10.44 117.76,-31.58 34.28,-20.9 59.65,-49.63 75.7,-85.97 12.36,-28.25 18.44,-69.81 18.44,-124.66l0.65 -45.59zm290.41 370.44l0 -739.46 102.81 0 0 113.26c26.24,-52.47 50.54,-87.15 72.87,-103.76 22.34,-16.86 46.85,-25.18 73.54,-25.18 38.6,0 77.85,13.3 117.76,39.66l-40.77 115.65c-27.77,-17.1 -55.53,-25.65 -83.29,-25.65 -24.94,0 -47.28,8.31 -67.02,24.69 -19.74,16.39 -33.83,39.19 -42.29,68.39 -12.8,44.41 -19.09,93.1 -19.09,146.05l0 386.35 -114.52 0zm413.62 61.27l110.61 17.1c4.55,37.51 17.56,64.83 38.83,82.16 28.41,23.03 67.23,34.67 116.46,34.67 52.93,0 93.91,-11.64 122.77,-34.67 28.84,-23.03 48.36,-55.57 58.56,-97.12 5.85,-25.41 8.67,-78.85 8.24,-160.29 -50.11,64.58 -112.35,96.88 -186.97,96.88 -92.82,0 -164.83,-36.57 -215.58,-109.94 -50.98,-73.15 -76.35,-161 -76.35,-263.35 0,-70.54 11.71,-135.59 34.92,-195.2 23.21,-59.61 57.05,-105.43 101.29,-137.97 44.25,-32.53 96.3,-48.68 156.17,-48.68 79.59,0 145.31,35.62 196.93,106.86l0 -91.18 105.41 0 0 638.54c0,115.17 -10.63,196.62 -32.1,244.59 -21.26,47.97 -55.31,85.96 -101.51,113.75 -46.41,27.78 -103.45,41.79 -171.12,41.79 -80.47,0 -145.32,-19.71 -194.77,-59.37 -49.67,-39.41 -73.53,-99.02 -71.79,-178.57zm93.69 -443.58c0,96.64 17.57,167.17 52.7,211.57 35.37,44.41 79.39,66.73 132.31,66.73 52.71,0 96.73,-22.09 132.52,-66.26 35.57,-44.16 53.36,-113.5 53.36,-208.02 0,-90.23 -18.44,-158.38 -55.09,-204.21 -36.66,-45.83 -80.91,-68.63 -132.52,-68.63 -50.97,0 -94.14,22.56 -129.92,67.67 -35.57,45.13 -53.36,112.09 -53.36,201.15zm608.16 12.57c0,-136.53 34.71,-237.69 104.33,-303.48 57.91,-54.61 128.83,-81.92 212.33,-81.92 92.62,0 168.53,33.24 227.52,99.74 58.78,66.25 88.28,158.15 88.28,275.22 0,94.99 -13.01,169.55 -39.04,223.93 -26.03,54.37 -63.98,96.65 -113.86,126.8 -49.68,30.17 -104.11,45.12 -162.9,45.12 -94.56,0 -170.9,-33 -229.25,-99.26 -58.35,-66.25 -87.41,-161.71 -87.41,-286.15zm117.13 0.25c0,94.51 18.87,165.28 56.61,212.05 37.95,47.01 85.45,70.53 142.92,70.53 56.83,0 104.11,-23.52 142.07,-70.77 37.74,-47.25 56.61,-119.2 56.61,-215.85 0,-91.19 -19.09,-160.29 -57.05,-207.08 -37.95,-47.01 -85.23,-70.52 -141.63,-70.52 -57.47,0 -104.97,23.27 -142.92,70.05 -37.74,46.79 -56.61,117.31 -56.61,211.59z"/>
   </g>
  </g>
 </g>
</svg>
